<svg width="889" height="889" xmlns="http://www.w3.org/2000/svg" xmlns:xlink="http://www.w3.org/1999/xlink" xml:space="preserve" overflow="hidden"><defs><clipPath id="clip0"><rect x="1756" y="793" width="889" height="889"/></clipPath></defs><g clip-path="url(#clip0)" transform="translate(-1756 -793)"><path d="M1780 1237.5C1780 1005.26 1968.04 817 2200 817 2431.96 817 2620 1005.26 2620 1237.5 2620 1469.74 2431.96 1658 2200 1658 1968.04 1658 1780 1469.74 1780 1237.5Z" fill="#FFE699" fill-rule="evenodd"/><path d="M1756 1237.5C1756 992.009 1954.79 793 2200 793 2445.22 793 2644 992.009 2644 1237.5 2644 1482.99 2445.22 1682 2200 1682 1954.79 1682 1756 1482.99 1756 1237.5ZM1797.21 1237.5C1797.21 1460.23 1977.55 1640.79 2200 1640.79 2422.45 1640.79 2602.79 1460.23 2602.79 1237.5 2602.79 1014.77 2422.45 834.213 2200 834.213 1977.55 834.213 1797.21 1014.77 1797.21 1237.5Z" fill-rule="evenodd"/><path d="M1911 1237.5C1911 1077.61 2040.39 948 2200 948 2359.61 948 2489 1077.61 2489 1237.5 2489 1397.39 2359.61 1527 2200 1527 2040.39 1527 1911 1397.39 1911 1237.5Z" stroke="#000000" stroke-width="27.5" stroke-miterlimit="8" fill="#FFF467" fill-rule="evenodd"/></g></svg>