<svg width="889" height="889" xmlns="http://www.w3.org/2000/svg" xmlns:xlink="http://www.w3.org/1999/xlink" xml:space="preserve" overflow="hidden"><defs><clipPath id="clip0"><rect x="1756" y="535" width="889" height="889"/></clipPath></defs><g clip-path="url(#clip0)" transform="translate(-1756 -535)"><path d="M1780 983C1780 751.04 1968.04 563 2200 563 2431.96 563 2620 751.04 2620 983 2620 1214.96 2431.96 1403 2200 1403 1968.04 1403 1780 1214.96 1780 983Z" fill="#FFFFFF" fill-rule="evenodd"/><path d="M2287.62 1070.44 1936.9 1241.9 2108.36 891.176Z" fill-rule="evenodd"/><path d="M2115.1 884.435 2465.82 712.98 2294.36 1063.7Z" fill-rule="evenodd"/><path d="M2073 979.5C2073 909.636 2129.86 853 2200 853 2270.14 853 2327 909.636 2327 979.5 2327 1049.36 2270.14 1106 2200 1106 2129.86 1106 2073 1049.36 2073 979.5Z" fill-rule="evenodd"/><path d="M2098 979.5C2098 923.443 2143.67 878 2200 878 2256.33 878 2302 923.443 2302 979.5 2302 1035.56 2256.33 1081 2200 1081 2143.67 1081 2098 1035.56 2098 979.5Z" fill="#FFFFFF" fill-rule="evenodd"/><path d="M1756 979.5C1756 734.009 1954.79 535 2200 535 2445.22 535 2644 734.009 2644 979.5 2644 1224.99 2445.22 1424 2200 1424 1954.79 1424 1756 1224.99 1756 979.5ZM1797.21 979.5C1797.21 1202.23 1977.55 1382.79 2200 1382.79 2422.45 1382.79 2602.79 1202.23 2602.79 979.5 2602.79 756.77 2422.45 576.212 2200 576.212 1977.55 576.212 1797.21 756.77 1797.21 979.5Z" fill-rule="evenodd"/></g></svg>