<svg width="1160" height="1833" xmlns="http://www.w3.org/2000/svg" xmlns:xlink="http://www.w3.org/1999/xlink" xml:space="preserve" overflow="hidden"><defs><clipPath id="clip0"><rect x="1620" y="349" width="1160" height="1833"/></clipPath></defs><g clip-path="url(#clip0)" transform="translate(-1620 -349)"><path d="M1780 797C1780 565.04 1968.04 377 2200 377 2431.96 377 2620 565.04 2620 797 2620 1028.96 2431.96 1217 2200 1217 1968.04 1217 1780 1028.96 1780 797Z" fill="#FFFFFF" fill-rule="evenodd"/><path d="M1756 793.5C1756 548.009 1954.79 349 2200 349 2445.22 349 2644 548.009 2644 793.5 2644 1038.99 2445.22 1238 2200 1238 1954.79 1238 1756 1038.99 1756 793.5ZM1797.21 793.5C1797.21 1016.23 1977.55 1196.79 2200 1196.79 2422.45 1196.79 2602.79 1016.23 2602.79 793.5 2602.79 570.77 2422.45 390.212 2200 390.212 1977.55 390.212 1797.21 570.77 1797.21 793.5Z" fill-rule="evenodd"/><rect x="2052" y="616" width="66" height="200"/><rect x="2282" y="616" width="66" height="200"/><rect x="2167" y="1238" width="66" height="357"/><path d="M2059.76 2170.46 1996.65 2151.55 2169.76 1573.76 2232.87 1592.67Z" fill-rule="evenodd"/><rect x="0" y="0" width="65.8885" height="603.167" transform="matrix(-0.957929 0.287006 0.287006 0.957929 2232.92 1585.12)"/><path d="M1620.13 1179.12 1646.25 1118.64 2200 1357.75 2173.88 1418.24Z" fill-rule="evenodd"/><rect x="0" y="0" width="65.8885" height="603.167" transform="matrix(0.396434 0.918063 0.918063 -0.396434 2200 1357.75)"/></g></svg>